<svg id="Layer_1" data-name="Layer 1" xmlns="http://www.w3.org/2000/svg" viewBox="0 0 64 64">
  <path fill="#877EFF" d="M63,15a14,14,0,0,0-28,0H8a5,5,0,0,0-5,5V53H1v5a5,5,0,0,0,5,5H52a5,5,0,0,0,5-5V53H55V27.63A14,14,0,0,0,63,15ZM49,27a12,12,0,0,1-9-4.09v-.79a3,3,0,0,1,2.27-2.91L44,18.77l1.46,5.14,3.5-3.5,3.5,3.5L54,18.77l1.77.44A3,3,0,0,1,58,22.12v.79A12,12,0,0,1,49,27Zm0,2V49H9V21H36.37A14,14,0,0,0,49,29Zm2.31-10.89.71.18-.52,1.8L50.41,19Zm-.81-3.53-.5.29v1.72l-1,1-1-1V14.87l-.5-.29A3,3,0,0,1,46,12V10.21A3.14,3.14,0,0,1,48.73,7,3,3,0,0,1,52,10v2A3,3,0,0,1,50.5,14.58Zm-3.81,3.53.9.89L46.5,20.09,46,18.29ZM49,3A12,12,0,0,1,59.7,20.41a5,5,0,0,0-3.49-3.14L52,16.22V16a5,5,0,0,0,2-4V10a5,5,0,0,0-5.45-5A5.14,5.14,0,0,0,44,10.21V12a5,5,0,0,0,2,4v.24l-4.21,1.05a5,5,0,0,0-3.49,3.14A12,12,0,0,1,49,3Zm6,55a3,3,0,0,1-3,3H6a3,3,0,0,1-3-3V55H55Zm-2-5H5V20a3,3,0,0,1,3-3H35.16a14.81,14.81,0,0,0,.43,2H9a2,2,0,0,0-2,2V49a2,2,0,0,0,2,2H49a2,2,0,0,0,2-2V28.84a14.81,14.81,0,0,0,2-.43Z"/>
  <rect x="26" y="57" width="6" height="2" fill="#877EFF"/>
  <rect x="34" y="57" width="2" height="2" fill="#877EFF"/>
  <rect x="22" y="57" width="2" height="2" fill="#877EFF"/>
  <path fill="#877EFF" d="M17,31H11V47h6ZM15,45H13V33h2Z"/>
  <path fill="#877EFF" d="M25,27H19V47h6ZM23,45H21V29h2Z"/>
  <path fill="#877EFF" d="M33,23H27V47h6ZM31,45H29V25h2Z"/>
  <rect x="35" y="33" width="12" height="2" fill="#877EFF"/>
  <rect x="35" y="37" width="12" height="2" fill="#877EFF"/>
  <rect x="35" y="41" width="12" height="2" fill="#877EFF"/>
  <rect x="35" y="45" width="12" height="2" fill="#877EFF"/>
</svg>